<svg class="border shadow-md" viewBox="0 0 708.4 708.4" style="width: 708.4px; height: 708.4px;" xmlns="http://www.w3.org/2000/svg" preserveAspectRatio="none"><rect class="bg" id="bg" x="0" y="0" width="708.4" height="708.4" fill="#ffffff"/><g transform="rotate(54 354.2 354.2)"><path d="M -236.13 438.40 S -128.07 232.40&#10;            0.00 438.40 108.07 332.40&#10;            236.13 438.40 344.20 379.40&#10;            472.27 438.40 579.40 414.40&#10;            708.40 438.40 816.47 406.40&#10;            944.53 438.40 h 110 V 1308.4 H -236.13 Z" fill="#FF7978"/><path d="M -236.13 295.00 S -234.00 137.00&#10;            0.00 295.00 30.13 157.50&#10;            236.13 295.00 344.20 157.50&#10;            472.27 295.00 580.33 157.50&#10;            708.40 295.00 725.53 144.00&#10;            944.53 295.00 h 110 V -600 H -236.13 Z" fill="#BBC2E2"/></g></svg>